<svg xmlns="http://www.w3.org/2000/svg" xmlns:xlink="http://www.w3.org/1999/xlink" contentStyleType="text/css" data-diagram-type="DESCRIPTION" height="2197px" preserveAspectRatio="none" style="width:587px;height:2197px;background:#FFFFFF;" version="1.1" viewBox="0 0 587 2197" width="587px" zoomAndPan="magnify"><title>Darknet-53 Architecture (YOLOv3 Backbone)</title><defs/><g><g class="title" data-source-line="6"><text fill="#000000" font-family="Verdana" font-size="22" font-weight="bold" lengthAdjust="spacing" textLength="554.8018" x="15" y="35.4209">Darknet-53 Architecture (YOLOv3 Backbone)</text></g><!--cluster Stage 0 (Basic Feature)--><g class="cluster" data-entity="Stage 0 .Basic Feature." data-source-line="20" data-uid="ent0003" id="cluster_Stage 0 .Basic Feature."><path d="M169.0388,174.6094 L351.0515,174.6094 A7.5,7.5 0 0 1 356.0515,179.6094 L363.0515,196.9063 L361.0388,196.9063 A5,5 0 0 1 366.0388,201.9063 L366.0388,305.6094 A5,5 0 0 1 361.0388,310.6094 L169.0388,310.6094 A5,5 0 0 1 164.0388,305.6094 L164.0388,179.6094 A5,5 0 0 1 169.0388,174.6094" fill="#FFFFFF" style="stroke:#000000;stroke-width:1;"/><line style="stroke:#000000;stroke-width:1;" x1="164.0388" x2="363.0515" y1="196.9063" y2="196.9063"/><text fill="#000000" font-family="Verdana" font-size="14" font-weight="bold" lengthAdjust="spacing" textLength="186.0127" x="168.0388" y="189.6045">Stage 0 (Basic Feature)</text></g><!--cluster Stage 1 (Downsample 1)--><g class="cluster" data-entity="Stage 1 .Downsample 1." data-source-line="25" data-uid="ent0005" id="cluster_Stage 1 .Downsample 1."><path d="M143.0388,359.6094 L332.5027,359.6094 A7.5,7.5 0 0 1 337.5027,364.6094 L344.5027,381.9063 L387.0388,381.9063 A5,5 0 0 1 392.0388,386.9063 L392.0388,620.6094 A5,5 0 0 1 387.0388,625.6094 L143.0388,625.6094 A5,5 0 0 1 138.0388,620.6094 L138.0388,364.6094 A5,5 0 0 1 143.0388,359.6094" fill="#FFFFFF" style="stroke:#000000;stroke-width:1;"/><line style="stroke:#000000;stroke-width:1;" x1="138.0388" x2="344.5027" y1="381.9063" y2="381.9063"/><text fill="#000000" font-family="Verdana" font-size="14" font-weight="bold" lengthAdjust="spacing" textLength="193.4639" x="142.0388" y="374.6045">Stage 1 (Downsample 1)</text></g><!--cluster Stage 2 (Downsample 2)--><g class="cluster" data-entity="Stage 2 .Downsample 2." data-source-line="31" data-uid="ent0008" id="cluster_Stage 2 .Downsample 2."><path d="M138.0388,674.6094 L327.5027,674.6094 A7.5,7.5 0 0 1 332.5027,679.6094 L339.5027,696.9063 L392.0388,696.9063 A5,5 0 0 1 397.0388,701.9063 L397.0388,935.6094 A5,5 0 0 1 392.0388,940.6094 L138.0388,940.6094 A5,5 0 0 1 133.0388,935.6094 L133.0388,679.6094 A5,5 0 0 1 138.0388,674.6094" fill="#FFFFFF" style="stroke:#000000;stroke-width:1;"/><line style="stroke:#000000;stroke-width:1;" x1="133.0388" x2="339.5027" y1="696.9063" y2="696.9063"/><text fill="#000000" font-family="Verdana" font-size="14" font-weight="bold" lengthAdjust="spacing" textLength="193.4639" x="137.0388" y="689.6045">Stage 2 (Downsample 2)</text></g><!--cluster Stage 3 (Downsample 3)--><g class="cluster" data-entity="Stage 3 .Downsample 3." data-source-line="37" data-uid="ent0011" id="cluster_Stage 3 .Downsample 3."><path d="M133.0388,989.6094 L322.5027,989.6094 A7.5,7.5 0 0 1 327.5027,994.6094 L334.5027,1011.9063 L397.0388,1011.9063 A5,5 0 0 1 402.0388,1016.9063 L402.0388,1250.6094 A5,5 0 0 1 397.0388,1255.6094 L133.0388,1255.6094 A5,5 0 0 1 128.0388,1250.6094 L128.0388,994.6094 A5,5 0 0 1 133.0388,989.6094" fill="#FFFFFF" style="stroke:#000000;stroke-width:1;"/><line style="stroke:#000000;stroke-width:1;" x1="128.0388" x2="334.5027" y1="1011.9063" y2="1011.9063"/><text fill="#000000" font-family="Verdana" font-size="14" font-weight="bold" lengthAdjust="spacing" textLength="193.4639" x="132.0388" y="1004.6045">Stage 3 (Downsample 3)</text></g><!--cluster Stage 4 (Downsample 4)--><g class="cluster" data-entity="Stage 4 .Downsample 4." data-source-line="43" data-uid="ent0014" id="cluster_Stage 4 .Downsample 4."><path d="M133.0388,1319.6094 L322.5027,1319.6094 A7.5,7.5 0 0 1 327.5027,1324.6094 L334.5027,1341.9063 L397.0388,1341.9063 A5,5 0 0 1 402.0388,1346.9063 L402.0388,1580.6094 A5,5 0 0 1 397.0388,1585.6094 L133.0388,1585.6094 A5,5 0 0 1 128.0388,1580.6094 L128.0388,1324.6094 A5,5 0 0 1 133.0388,1319.6094" fill="#FFFFFF" style="stroke:#000000;stroke-width:1;"/><line style="stroke:#000000;stroke-width:1;" x1="128.0388" x2="334.5027" y1="1341.9063" y2="1341.9063"/><text fill="#000000" font-family="Verdana" font-size="14" font-weight="bold" lengthAdjust="spacing" textLength="193.4639" x="132.0388" y="1334.6045">Stage 4 (Downsample 4)</text></g><!--cluster Stage 5 (Downsample 5)--><g class="cluster" data-entity="Stage 5 .Downsample 5." data-source-line="49" data-uid="ent0017" id="cluster_Stage 5 .Downsample 5."><path d="M129.0388,1649.6094 L318.5027,1649.6094 A7.5,7.5 0 0 1 323.5027,1654.6094 L330.5027,1671.9063 L401.0388,1671.9063 A5,5 0 0 1 406.0388,1676.9063 L406.0388,1910.6094 A5,5 0 0 1 401.0388,1915.6094 L129.0388,1915.6094 A5,5 0 0 1 124.0388,1910.6094 L124.0388,1654.6094 A5,5 0 0 1 129.0388,1649.6094" fill="#FFFFFF" style="stroke:#000000;stroke-width:1;"/><line style="stroke:#000000;stroke-width:1;" x1="124.0388" x2="330.5027" y1="1671.9063" y2="1671.9063"/><text fill="#000000" font-family="Verdana" font-size="14" font-weight="bold" lengthAdjust="spacing" textLength="193.4639" x="128.0388" y="1664.6045">Stage 5 (Downsample 5)</text></g><!--entity S0_Conv--><g class="entity" data-entity="S0_Conv" data-source-line="21" data-uid="ent0004" id="entity_S0_Conv"><rect fill="#FFFFE0" height="85.1875" rx="5" ry="5" style="stroke:#000000;stroke-width:1;" width="117.125" x="206.5388" y="209.6094"/><text fill="#000000" font-family="Verdana" font-size="14" font-style="italic" lengthAdjust="spacing" textLength="52.7803" x="238.7112" y="232.6045">&#171;Conv&#187;</text><text fill="#000000" font-family="Verdana" font-size="14" font-weight="bold" lengthAdjust="spacing" textLength="60.3477" x="216.5388" y="248.9014">Conv2D</text><text fill="#000000" font-family="Verdana" font-size="14" lengthAdjust="spacing" textLength="97.125" x="216.5388" y="265.1982">32 filters, 3x3</text><text fill="#000000" font-family="Verdana" font-size="14" lengthAdjust="spacing" textLength="71.4902" x="216.5388" y="281.4951">(stride=1)</text></g><!--entity S1_Conv--><g class="entity" data-entity="S1_Conv" data-source-line="26" data-uid="ent0006" id="entity_S1_Conv"><rect fill="#FFFFE0" height="85.1875" rx="5" ry="5" style="stroke:#000000;stroke-width:1;" width="117.125" x="206.5388" y="394.6094"/><text fill="#000000" font-family="Verdana" font-size="14" font-style="italic" lengthAdjust="spacing" textLength="52.7803" x="238.7112" y="417.6045">&#171;Conv&#187;</text><text fill="#000000" font-family="Verdana" font-size="14" font-weight="bold" lengthAdjust="spacing" textLength="60.3477" x="216.5388" y="433.9014">Conv2D</text><text fill="#000000" font-family="Verdana" font-size="14" lengthAdjust="spacing" textLength="97.125" x="216.5388" y="450.1982">64 filters, 3x3</text><text fill="#000000" font-family="Verdana" font-size="14" lengthAdjust="spacing" textLength="71.4902" x="216.5388" y="466.4951">(stride=2)</text></g><!--entity S1_Res--><g class="entity" data-entity="S1_Res" data-source-line="27" data-uid="ent0007" id="entity_S1_Res"><rect fill="#90EE90" height="68.8906" rx="5" ry="5" style="stroke:#000000;stroke-width:1;" width="223.1641" x="153.5388" y="540.6094"/><text fill="#000000" font-family="Verdana" font-size="14" font-style="italic" lengthAdjust="spacing" textLength="80.7803" x="224.7307" y="563.6045">&#171;ResBlock&#187;</text><text fill="#000000" font-family="Verdana" font-size="14" font-weight="bold" lengthAdjust="spacing" textLength="138.8584" x="163.5388" y="579.9014">Residual Block x1</text><text fill="#000000" font-family="Verdana" font-size="14" lengthAdjust="spacing" textLength="203.1641" x="163.5388" y="596.1982">[1x1 (32) -&gt; 3x3 (64)] + Add</text></g><!--entity S2_Conv--><g class="entity" data-entity="S2_Conv" data-source-line="32" data-uid="ent0009" id="entity_S2_Conv"><rect fill="#FFFFE0" height="85.1875" rx="5" ry="5" style="stroke:#000000;stroke-width:1;" width="126.0322" x="202.0388" y="709.6094"/><text fill="#000000" font-family="Verdana" font-size="14" font-style="italic" lengthAdjust="spacing" textLength="52.7803" x="238.6648" y="732.6045">&#171;Conv&#187;</text><text fill="#000000" font-family="Verdana" font-size="14" font-weight="bold" lengthAdjust="spacing" textLength="60.3477" x="212.0388" y="748.9014">Conv2D</text><text fill="#000000" font-family="Verdana" font-size="14" lengthAdjust="spacing" textLength="106.0322" x="212.0388" y="765.1982">128 filters, 3x3</text><text fill="#000000" font-family="Verdana" font-size="14" lengthAdjust="spacing" textLength="71.4902" x="212.0388" y="781.4951">(stride=2)</text></g><!--entity S2_Res--><g class="entity" data-entity="S2_Res" data-source-line="33" data-uid="ent0010" id="entity_S2_Res"><rect fill="#90EE90" height="68.8906" rx="5" ry="5" style="stroke:#000000;stroke-width:1;" width="232.0713" x="149.0388" y="855.6094"/><text fill="#000000" font-family="Verdana" font-size="14" font-style="italic" lengthAdjust="spacing" textLength="80.7803" x="224.6843" y="878.6045">&#171;ResBlock&#187;</text><text fill="#000000" font-family="Verdana" font-size="14" font-weight="bold" lengthAdjust="spacing" textLength="138.8584" x="159.0388" y="894.9014">Residual Block x2</text><text fill="#000000" font-family="Verdana" font-size="14" lengthAdjust="spacing" textLength="212.0713" x="159.0388" y="911.1982">[1x1 (64) -&gt; 3x3 (128)] + Add</text></g><!--entity S3_Conv--><g class="entity" data-entity="S3_Conv" data-source-line="38" data-uid="ent0012" id="entity_S3_Conv"><rect fill="#FFFFE0" height="85.1875" rx="5" ry="5" style="stroke:#000000;stroke-width:1;" width="126.0322" x="202.0388" y="1024.6094"/><text fill="#000000" font-family="Verdana" font-size="14" font-style="italic" lengthAdjust="spacing" textLength="52.7803" x="238.6648" y="1047.6045">&#171;Conv&#187;</text><text fill="#000000" font-family="Verdana" font-size="14" font-weight="bold" lengthAdjust="spacing" textLength="60.3477" x="212.0388" y="1063.9014">Conv2D</text><text fill="#000000" font-family="Verdana" font-size="14" lengthAdjust="spacing" textLength="106.0322" x="212.0388" y="1080.1982">256 filters, 3x3</text><text fill="#000000" font-family="Verdana" font-size="14" lengthAdjust="spacing" textLength="71.4902" x="212.0388" y="1096.4951">(stride=2)</text></g><!--entity S3_Res--><g class="entity" data-entity="S3_Res" data-source-line="39" data-uid="ent0013" id="entity_S3_Res"><rect fill="#90EE90" height="68.8906" rx="5" ry="5" style="stroke:#000000;stroke-width:1;" width="240.9785" x="144.5388" y="1170.6094"/><text fill="#000000" font-family="Verdana" font-size="14" font-style="italic" lengthAdjust="spacing" textLength="80.7803" x="224.6379" y="1193.6045">&#171;ResBlock&#187;</text><text fill="#000000" font-family="Verdana" font-size="14" font-weight="bold" lengthAdjust="spacing" textLength="138.8584" x="154.5388" y="1209.9014">Residual Block x8</text><text fill="#000000" font-family="Verdana" font-size="14" lengthAdjust="spacing" textLength="220.9785" x="154.5388" y="1226.1982">[1x1 (128) -&gt; 3x3 (256)] + Add</text></g><!--entity S4_Conv--><g class="entity" data-entity="S4_Conv" data-source-line="44" data-uid="ent0015" id="entity_S4_Conv"><rect fill="#FFFFE0" height="85.1875" rx="5" ry="5" style="stroke:#000000;stroke-width:1;" width="126.0322" x="202.0388" y="1354.6094"/><text fill="#000000" font-family="Verdana" font-size="14" font-style="italic" lengthAdjust="spacing" textLength="52.7803" x="238.6648" y="1377.6045">&#171;Conv&#187;</text><text fill="#000000" font-family="Verdana" font-size="14" font-weight="bold" lengthAdjust="spacing" textLength="60.3477" x="212.0388" y="1393.9014">Conv2D</text><text fill="#000000" font-family="Verdana" font-size="14" lengthAdjust="spacing" textLength="106.0322" x="212.0388" y="1410.1982">512 filters, 3x3</text><text fill="#000000" font-family="Verdana" font-size="14" lengthAdjust="spacing" textLength="71.4902" x="212.0388" y="1426.4951">(stride=2)</text></g><!--entity S4_Res--><g class="entity" data-entity="S4_Res" data-source-line="45" data-uid="ent0016" id="entity_S4_Res"><rect fill="#90EE90" height="68.8906" rx="5" ry="5" style="stroke:#000000;stroke-width:1;" width="240.9785" x="144.5388" y="1500.6094"/><text fill="#000000" font-family="Verdana" font-size="14" font-style="italic" lengthAdjust="spacing" textLength="80.7803" x="224.6379" y="1523.6045">&#171;ResBlock&#187;</text><text fill="#000000" font-family="Verdana" font-size="14" font-weight="bold" lengthAdjust="spacing" textLength="138.8584" x="154.5388" y="1539.9014">Residual Block x8</text><text fill="#000000" font-family="Verdana" font-size="14" lengthAdjust="spacing" textLength="220.9785" x="154.5388" y="1556.1982">[1x1 (256) -&gt; 3x3 (512)] + Add</text></g><!--entity S5_Conv--><g class="entity" data-entity="S5_Conv" data-source-line="50" data-uid="ent0018" id="entity_S5_Conv"><rect fill="#FFFFE0" height="85.1875" rx="5" ry="5" style="stroke:#000000;stroke-width:1;" width="134.9395" x="197.5388" y="1684.6094"/><text fill="#000000" font-family="Verdana" font-size="14" font-style="italic" lengthAdjust="spacing" textLength="52.7803" x="238.6184" y="1707.6045">&#171;Conv&#187;</text><text fill="#000000" font-family="Verdana" font-size="14" font-weight="bold" lengthAdjust="spacing" textLength="60.3477" x="207.5388" y="1723.9014">Conv2D</text><text fill="#000000" font-family="Verdana" font-size="14" lengthAdjust="spacing" textLength="114.9395" x="207.5388" y="1740.1982">1024 filters, 3x3</text><text fill="#000000" font-family="Verdana" font-size="14" lengthAdjust="spacing" textLength="71.4902" x="207.5388" y="1756.4951">(stride=2)</text></g><!--entity S5_Res--><g class="entity" data-entity="S5_Res" data-source-line="51" data-uid="ent0019" id="entity_S5_Res"><rect fill="#90EE90" height="68.8906" rx="5" ry="5" style="stroke:#000000;stroke-width:1;" width="249.8857" x="140.0388" y="1830.6094"/><text fill="#000000" font-family="Verdana" font-size="14" font-style="italic" lengthAdjust="spacing" textLength="80.7803" x="224.5916" y="1853.6045">&#171;ResBlock&#187;</text><text fill="#000000" font-family="Verdana" font-size="14" font-weight="bold" lengthAdjust="spacing" textLength="138.8584" x="150.0388" y="1869.9014">Residual Block x4</text><text fill="#000000" font-family="Verdana" font-size="14" lengthAdjust="spacing" textLength="229.8857" x="150.0388" y="1886.1982">[1x1 (512) -&gt; 3x3 (1024)] + Add</text></g><!--entity Input--><g class="entity" data-entity="Input" data-source-line="17" data-uid="ent0002" id="entity_Input"><rect fill="#ADD8E6" height="68.8906" rx="5" ry="5" style="stroke:#000000;stroke-width:1;" width="127.6455" x="201.0388" y="58.6094"/><text fill="#000000" font-family="Verdana" font-size="14" font-style="italic" lengthAdjust="spacing" textLength="53.5322" x="238.0955" y="81.6045">&#171;Input&#187;</text><text fill="#000000" font-family="Verdana" font-size="14" font-weight="bold" lengthAdjust="spacing" textLength="41.8564" x="211.0388" y="97.9014">Input</text><text fill="#000000" font-family="Verdana" font-size="14" lengthAdjust="spacing" textLength="107.6455" x="211.0388" y="114.1982">(256 x 256 x 3)</text></g><!--entity Output--><g class="entity" data-entity="Output" data-source-line="55" data-uid="ent0020" id="entity_Output"><rect fill="#D3D3D3" height="85.1875" rx="5" ry="5" style="stroke:#000000;stroke-width:1;" width="210.9004" x="159.5388" y="1993.6094"/><text fill="#000000" font-family="Verdana" font-size="14" font-style="italic" lengthAdjust="spacing" textLength="65.9121" x="232.033" y="2016.6045">&#171;Output&#187;</text><text fill="#000000" font-family="Verdana" font-size="14" font-weight="bold" lengthAdjust="spacing" textLength="124.2021" x="169.5388" y="2032.9014">Global Avg Pool</text><text fill="#000000" font-family="Verdana" font-size="14" lengthAdjust="spacing" textLength="127.8184" x="169.5388" y="2049.1982">&amp; Connected&lt;/b&gt;</text><text fill="#000000" font-family="Verdana" font-size="14" lengthAdjust="spacing" textLength="190.9004" x="169.5388" y="2065.4951">(Optional for Classification)</text></g><!--link Input to S0_Conv--><g class="link" data-entity-1="Input" data-entity-2="S0_Conv" data-source-line="58" data-uid="lnk21" id="link_Input_S0_Conv"><path d="M265.0388,127.7894 C265.0388,151.6694 265.0388,177.8594 265.0388,203.3694" fill="none" id="Input-to-S0_Conv" style="stroke:#000000;stroke-width:1;"/><polygon fill="#000000" points="265.0388,209.3694,269.0388,200.3694,265.0388,204.3694,261.0388,200.3694,265.0388,209.3694" style="stroke:#000000;stroke-width:1;"/></g><!--link S0_Conv to S1_Conv--><g class="link" data-entity-1="S0_Conv" data-entity-2="S1_Conv" data-source-line="60" data-uid="lnk22" id="link_S0_Conv_S1_Conv"><path d="M265.0388,294.6394 C265.0388,324.4794 265.0388,358.5494 265.0388,388.4294" fill="none" id="S0_Conv-to-S1_Conv" style="stroke:#000000;stroke-width:1;"/><polygon fill="#000000" points="265.0388,394.4294,269.0388,385.4294,265.0388,389.4294,261.0388,385.4294,265.0388,394.4294" style="stroke:#000000;stroke-width:1;"/><text fill="#000000" font-family="Verdana" font-size="13" lengthAdjust="spacing" textLength="98.084" x="266.0388" y="339.6763">256 x 256 x 32</text></g><!--link S1_Conv to S1_Res--><g class="link" data-entity-1="S1_Conv" data-entity-2="S1_Res" data-source-line="61" data-uid="lnk23" id="link_S1_Conv_S1_Res"><path d="M265.0388,479.6494 C265.0388,499.1794 265.0388,516.1594 265.0388,534.5594" fill="none" id="S1_Conv-to-S1_Res" style="stroke:#000000;stroke-width:1;"/><polygon fill="#000000" points="265.0388,540.5594,269.0388,531.5594,265.0388,535.5594,261.0388,531.5594,265.0388,540.5594" style="stroke:#000000;stroke-width:1;"/></g><!--link S1_Res to S2_Conv--><g class="link" data-entity-1="S1_Res" data-entity-2="S2_Conv" data-source-line="62" data-uid="lnk24" id="link_S1_Res_S2_Conv"><path d="M265.0388,609.8494 C265.0388,638.2594 265.0388,673.0094 265.0388,703.4394" fill="none" id="S1_Res-to-S2_Conv" style="stroke:#000000;stroke-width:1;"/><polygon fill="#000000" points="265.0388,709.4394,269.0388,700.4394,265.0388,704.4394,261.0388,700.4394,265.0388,709.4394" style="stroke:#000000;stroke-width:1;"/><text fill="#000000" font-family="Verdana" font-size="13" lengthAdjust="spacing" textLength="98.084" x="266.0388" y="654.6763">128 x 128 x 64</text></g><!--link S2_Conv to S2_Res--><g class="link" data-entity-1="S2_Conv" data-entity-2="S2_Res" data-source-line="64" data-uid="lnk25" id="link_S2_Conv_S2_Res"><path d="M265.0388,794.6494 C265.0388,814.1794 265.0388,831.1594 265.0388,849.5594" fill="none" id="S2_Conv-to-S2_Res" style="stroke:#000000;stroke-width:1;"/><polygon fill="#000000" points="265.0388,855.5594,269.0388,846.5594,265.0388,850.5594,261.0388,846.5594,265.0388,855.5594" style="stroke:#000000;stroke-width:1;"/></g><!--link S2_Res to S3_Conv--><g class="link" data-entity-1="S2_Res" data-entity-2="S3_Conv" data-source-line="65" data-uid="lnk26" id="link_S2_Res_S3_Conv"><path d="M265.0388,924.8494 C265.0388,953.2594 265.0388,988.0094 265.0388,1018.4394" fill="none" id="S2_Res-to-S3_Conv" style="stroke:#000000;stroke-width:1;"/><polygon fill="#000000" points="265.0388,1024.4394,269.0388,1015.4394,265.0388,1019.4394,261.0388,1015.4394,265.0388,1024.4394" style="stroke:#000000;stroke-width:1;"/><text fill="#000000" font-family="Verdana" font-size="13" lengthAdjust="spacing" textLength="89.813" x="266.0388" y="969.6763">64 x 64 x 128</text></g><!--link S3_Conv to S3_Res--><g class="link" data-entity-1="S3_Conv" data-entity-2="S3_Res" data-source-line="67" data-uid="lnk27" id="link_S3_Conv_S3_Res"><path d="M265.0388,1109.6494 C265.0388,1129.1794 265.0388,1146.1594 265.0388,1164.5594" fill="none" id="S3_Conv-to-S3_Res" style="stroke:#000000;stroke-width:1;"/><polygon fill="#000000" points="265.0388,1170.5594,269.0388,1161.5594,265.0388,1165.5594,261.0388,1161.5594,265.0388,1170.5594" style="stroke:#000000;stroke-width:1;"/></g><!--link S3_Res to S4_Conv--><g class="link" data-entity-1="S3_Res" data-entity-2="S4_Conv" data-source-line="68" data-uid="lnk28" id="link_S3_Res_S4_Conv"><path d="M265.0388,1239.6394 C265.0388,1271.5994 265.0388,1313.8294 265.0388,1348.2894" fill="none" id="S3_Res-to-S4_Conv" style="stroke:#000000;stroke-width:1;"/><polygon fill="#000000" points="265.0388,1354.2894,269.0388,1345.2894,265.0388,1349.2894,261.0388,1345.2894,265.0388,1354.2894" style="stroke:#000000;stroke-width:1;"/><text fill="#000000" font-family="Verdana" font-size="13" lengthAdjust="spacing" textLength="89.813" x="324.4944" y="1284.6763">32 x 32 x 256</text><text fill="#000000" font-family="Verdana" font-size="13" lengthAdjust="spacing" textLength="206.7241" x="266.0388" y="1299.8091">(Scale 3 Output for YOLO Head)</text></g><!--link S4_Conv to S4_Res--><g class="link" data-entity-1="S4_Conv" data-entity-2="S4_Res" data-source-line="70" data-uid="lnk29" id="link_S4_Conv_S4_Res"><path d="M265.0388,1439.6494 C265.0388,1459.1794 265.0388,1476.1594 265.0388,1494.5594" fill="none" id="S4_Conv-to-S4_Res" style="stroke:#000000;stroke-width:1;"/><polygon fill="#000000" points="265.0388,1500.5594,269.0388,1491.5594,265.0388,1495.5594,261.0388,1491.5594,265.0388,1500.5594" style="stroke:#000000;stroke-width:1;"/></g><!--link S4_Res to S5_Conv--><g class="link" data-entity-1="S4_Res" data-entity-2="S5_Conv" data-source-line="71" data-uid="lnk30" id="link_S4_Res_S5_Conv"><path d="M265.0388,1569.6394 C265.0388,1601.5994 265.0388,1643.8294 265.0388,1678.2894" fill="none" id="S4_Res-to-S5_Conv" style="stroke:#000000;stroke-width:1;"/><polygon fill="#000000" points="265.0388,1684.2894,269.0388,1675.2894,265.0388,1679.2894,261.0388,1675.2894,265.0388,1684.2894" style="stroke:#000000;stroke-width:1;"/><text fill="#000000" font-family="Verdana" font-size="13" lengthAdjust="spacing" textLength="89.813" x="324.4944" y="1614.6763">16 x 16 x 512</text><text fill="#000000" font-family="Verdana" font-size="13" lengthAdjust="spacing" textLength="206.7241" x="266.0388" y="1629.8091">(Scale 2 Output for YOLO Head)</text></g><!--link S5_Conv to S5_Res--><g class="link" data-entity-1="S5_Conv" data-entity-2="S5_Res" data-source-line="73" data-uid="lnk31" id="link_S5_Conv_S5_Res"><path d="M265.0388,1769.6494 C265.0388,1789.1794 265.0388,1806.1594 265.0388,1824.5594" fill="none" id="S5_Conv-to-S5_Res" style="stroke:#000000;stroke-width:1;"/><polygon fill="#000000" points="265.0388,1830.5594,269.0388,1821.5594,265.0388,1825.5594,261.0388,1821.5594,265.0388,1830.5594" style="stroke:#000000;stroke-width:1;"/></g><!--link S5_Res to Output--><g class="link" data-entity-1="S5_Res" data-entity-2="Output" data-source-line="74" data-uid="lnk32" id="link_S5_Res_Output"><path d="M265.0388,1899.8994 C265.0388,1926.8694 265.0388,1958.7794 265.0388,1987.5994" fill="none" id="S5_Res-to-Output" style="stroke:#000000;stroke-width:1;"/><polygon fill="#000000" points="265.0388,1993.5994,269.0388,1984.5994,265.0388,1988.5994,261.0388,1984.5994,265.0388,1993.5994" style="stroke:#000000;stroke-width:1;"/><text fill="#000000" font-family="Verdana" font-size="13" lengthAdjust="spacing" textLength="81.542" x="328.6299" y="1944.6763">8 x 8 x 1024</text><text fill="#000000" font-family="Verdana" font-size="13" lengthAdjust="spacing" textLength="206.7241" x="266.0388" y="1959.8091">(Scale 1 Output for YOLO Head)</text></g><g class="legend" data-source-line="77"><rect fill="none" height="95.4844" rx="5" ry="5" style="stroke:#000000;stroke-width:1;" width="318.9844" x="142.7786" y="2088.7969"/><text fill="#000000" font-family="Verdana" font-size="14" lengthAdjust="spacing" textLength="36.5518" x="152.2288" y="2108.792">Color</text><text fill="#000000" font-family="Verdana" font-size="14" lengthAdjust="spacing" textLength="34.3369" x="197.6809" y="2108.792">Type</text><rect fill="#ADD8E6" height="16.2969" style="stroke:none;stroke-width:1;" width="45.4521" x="147.7786" y="2112.0938"/><text fill="#000000" font-family="Verdana" font-size="14" lengthAdjust="spacing" textLength="4.4502" x="147.7786" y="2125.0889">&#160;</text><text fill="#000000" font-family="Verdana" font-size="14" lengthAdjust="spacing" textLength="36.251" x="197.6809" y="2125.0889">Input</text><rect fill="#FFFFE0" height="16.2969" style="stroke:none;stroke-width:1;" width="45.4521" x="147.7786" y="2128.3906"/><text fill="#000000" font-family="Verdana" font-size="14" lengthAdjust="spacing" textLength="4.4502" x="147.7786" y="2141.3857">&#160;</text><text fill="#000000" font-family="Verdana" font-size="14" lengthAdjust="spacing" textLength="189.5879" x="197.6809" y="2141.3857">Convolution (Downsample)</text><rect fill="#90EE90" height="16.2969" style="stroke:none;stroke-width:1;" width="45.4521" x="147.7786" y="2144.6875"/><text fill="#000000" font-family="Verdana" font-size="14" lengthAdjust="spacing" textLength="4.4502" x="147.7786" y="2157.6826">&#160;</text><text fill="#000000" font-family="Verdana" font-size="14" lengthAdjust="spacing" textLength="254.6318" x="197.6809" y="2157.6826">Residual Blocks (Feature Extraction)</text><rect fill="#D3D3D3" height="16.2969" style="stroke:none;stroke-width:1;" width="45.4521" x="147.7786" y="2160.9844"/><text fill="#000000" font-family="Verdana" font-size="14" lengthAdjust="spacing" textLength="4.4502" x="147.7786" y="2173.9795">&#160;</text><text fill="#000000" font-family="Verdana" font-size="14" lengthAdjust="spacing" textLength="116.9902" x="197.6809" y="2173.9795">Classifier Output</text><line style="stroke:#000000;stroke-width:1;" x1="147.7786" x2="456.7629" y1="2095.7969" y2="2095.7969"/><line style="stroke:#000000;stroke-width:1;" x1="147.7786" x2="456.7629" y1="2112.0938" y2="2112.0938"/><line style="stroke:#000000;stroke-width:1;" x1="147.7786" x2="456.7629" y1="2128.3906" y2="2128.3906"/><line style="stroke:#000000;stroke-width:1;" x1="147.7786" x2="456.7629" y1="2144.6875" y2="2144.6875"/><line style="stroke:#000000;stroke-width:1;" x1="147.7786" x2="456.7629" y1="2160.9844" y2="2160.9844"/><line style="stroke:#000000;stroke-width:1;" x1="147.7786" x2="456.7629" y1="2177.2813" y2="2177.2813"/><line style="stroke:#000000;stroke-width:1;" x1="147.7786" x2="147.7786" y1="2095.7969" y2="2177.2813"/><line style="stroke:#000000;stroke-width:1;" x1="193.2307" x2="193.2307" y1="2095.7969" y2="2177.2813"/><line style="stroke:#000000;stroke-width:1;" x1="456.7629" x2="456.7629" y1="2095.7969" y2="2177.2813"/></g><!--SRC=[fPPTQzn658RlzIjE7MXtQKojaMH2s2xueqq39WvnRa9JmbWQhuMreqMQtQo90qx0-IQ5jZTD82GaeRvg6qofupNkdx5sxQl-XPxHI5f9zSUQ-69iZyvxtddEZCxeCx7CcWnQ7dMv5gwul4K3sWJRRxPyphXO4AiUWu3PWlA6nt8XWT_cpemVS1Q0Ff5x42vJnx_D6o22DjCquGhCC4k35Sx4k6N0L60lkm8pjWC6bHlpS_CT0wQflRA8ZbLD-mAYtr_iVtpSV_rtjFjZtZ5T1TpH07-aff4im_E3MkqoRxL5lGvpRcDPJ7leVcJOZCyxQTGDvdd-xQFZhh5mslFjbJJsKi0OFpfqlYrorXYugjsL90TxFqSRxwCFzxNXuiTgY_LufRMl5kitUOLOaz05DHhLCQ0Xn8yX0vAP5WHjC9ZGMcWj_nfB9g0oJKFNXcyPbGL5lIfEqKyYarbbQ11OSZt1Wl0y65q3Ln2Am7NOrxeoNvYu9SCXBPGYKNPwsL-7oYnkTaYRBRJIHx2VD8-n9uczNhB_VphS6DTfKm_YxO6khZ9_htTnEGQfmdXTfeRAf5dz0Rw4AST9KwCKyZkRXoDbE5A08oF0wUJ2ANJap7GaJuT46HsQ5V78YNX66Syeu1aZuCb3UZAUSMQy2tayYPJneLkHppYHpoppcGK-SmG-IoUdy9cVnYUHCZvqA_AP9_9PPJwhm6UDSZmdo6bldtLcG3CFA9c61nJjYeJMCOJHnkR1Fw_wpsMhXCf-RsFmo-R-plFBJUIymaJqwC7WG-_VtMVzj-lzlvxkzthHapU7wo-YxUt1Rxt3NzzLI_trakSluWgdEWsuwllUJVuv80_76EOaRNU-9LoVOz2I7y2CHyFGNN9jAYTLALHFXs5p7rvDoLetjWPRlUYdPuF77wEzUz7BlUZFdUYFxVxhX_sjJKqryN4iHj9HDIrjhV5aqkSkGk4285hw80d2Kcb9uufdI2gJlQQRZ9Cc9YSv7L4wCjGPgGuRS5SDg4MPaPCPIcOCPMOgmskZgmPSATPlmQQoQwHbabMKTpbynwY3jtWgJ9B4QSrXMYkZaDJnW4SdIqkEJMlbqbeghPMbJKGNGTOahWwUm2ofVbnItDQNUtBBFDPWt850NkBnoL-3-8B7tzTNMmpMaidQkUmJeux_gfqkFLHV5lKu1U_uNbkUhFmRMoqhukyBAIY-OI5KaiiTlkcAWDhn4Jr2l1gR9ISPlyeIsZLDCYcq_m00]--></g></svg>