<svg xmlns="http://www.w3.org/2000/svg" xmlns:xlink="http://www.w3.org/1999/xlink" contentStyleType="text/css" data-diagram-type="ACTIVITY" height="980px" preserveAspectRatio="none" style="width:311px;height:980px;background:#FFFFFF;" version="1.1" viewBox="0 0 311 980" width="311px" zoomAndPan="magnify"><title>DenseNet-121 Macro Architecture</title><defs/><g><g class="title" data-source-line="10"><text fill="#000000" font-family="sans-serif" font-size="14" font-weight="bold" lengthAdjust="spacing" textLength="268.1465" x="20" y="32.9951">DenseNet-121 Macro Architecture</text></g><ellipse cx="155.5732" cy="57.2969" fill="#222222" rx="10" ry="10" style="stroke:#222222;stroke-width:1;"/><rect fill="#F1F1F1" height="33.9688" rx="12.5" ry="12.5" style="stroke:#181818;stroke-width:0.5;" width="92.4688" x="109.3389" y="87.2969"/><text fill="#000000" font-family="sans-serif" font-size="12" lengthAdjust="spacing" textLength="72.4688" x="119.3389" y="108.4355">Input Image</text><rect fill="none" height="136.2344" style="stroke:#000000;stroke-width:1.5;" width="191.9219" x="59.6123" y="131.2656"/><path d="M226.0732,131.2656 L226.0732,140.5625 L216.0732,150.5625 L59.6123,150.5625" fill="none" style="stroke:#000000;stroke-width:1.5;"/><text fill="#000000" font-family="sans-serif" font-size="14" lengthAdjust="spacing" textLength="156.4609" x="62.6123" y="145.2607">Stem (Initial Features)</text><rect fill="#F1F1F1" height="33.9688" rx="12.5" ry="12.5" style="stroke:#181818;stroke-width:0.5;" width="129.916" x="90.6152" y="167.5625"/><text fill="#000000" font-family="sans-serif" font-size="12" lengthAdjust="spacing" textLength="109.916" x="100.6152" y="188.7012">Conv 7x7, stride 2</text><rect fill="#F1F1F1" height="33.9688" rx="12.5" ry="12.5" style="stroke:#181818;stroke-width:0.5;" width="171.9219" x="69.6123" y="221.5313"/><text fill="#000000" font-family="sans-serif" font-size="12" lengthAdjust="spacing" textLength="151.9219" x="79.6123" y="242.6699">Max Pooling 3x3, stride 2</text><rect fill="none" height="503.8594" style="stroke:#000000;stroke-width:1.5;" width="246.1855" x="32.4805" y="277.5"/><path d="M223.0928,277.5 L223.0928,286.7969 L213.0928,296.7969 L32.4805,296.7969" fill="none" style="stroke:#000000;stroke-width:1.5;"/><text fill="#000000" font-family="sans-serif" font-size="14" lengthAdjust="spacing" textLength="180.6123" x="35.4805" y="291.4951">Body (Feature Extraction)</text><rect fill="#F1F1F1" height="47.9375" rx="12.5" ry="12.5" style="stroke:#181818;stroke-width:0.5;" width="127.6602" x="91.7432" y="313.7969"/><text fill="#000000" font-family="sans-serif" font-size="12" lengthAdjust="spacing" textLength="85.582" x="101.7432" y="334.9355">Dense Block 1</text><text fill="#000000" font-family="sans-serif" font-size="12" lengthAdjust="spacing" textLength="107.6602" x="101.7432" y="348.9043">(6 Layers)&#171;Block&#187;</text><rect fill="#F1F1F1" height="47.9375" rx="12.5" ry="12.5" style="stroke:#181818;stroke-width:0.5;" width="226.1855" x="42.4805" y="381.7344"/><text fill="#000000" font-family="sans-serif" font-size="12" lengthAdjust="spacing" textLength="108.5156" x="52.4805" y="402.873">Transition Layer 1</text><text fill="#000000" font-family="sans-serif" font-size="12" lengthAdjust="spacing" textLength="206.1855" x="52.4805" y="416.8418">(1x1 Conv + 2x2 AvgPool)&#171;Trans&#187;</text><rect fill="#F1F1F1" height="47.9375" rx="12.5" ry="12.5" style="stroke:#181818;stroke-width:0.5;" width="135.2949" x="87.9258" y="449.6719"/><text fill="#000000" font-family="sans-serif" font-size="12" lengthAdjust="spacing" textLength="85.582" x="97.9258" y="470.8105">Dense Block 2</text><text fill="#000000" font-family="sans-serif" font-size="12" lengthAdjust="spacing" textLength="115.2949" x="97.9258" y="484.7793">(12 Layers)&#171;Block&#187;</text><rect fill="#F1F1F1" height="47.9375" rx="12.5" ry="12.5" style="stroke:#181818;stroke-width:0.5;" width="226.1855" x="42.4805" y="517.6094"/><text fill="#000000" font-family="sans-serif" font-size="12" lengthAdjust="spacing" textLength="108.5156" x="52.4805" y="538.748">Transition Layer 2</text><text fill="#000000" font-family="sans-serif" font-size="12" lengthAdjust="spacing" textLength="206.1855" x="52.4805" y="552.7168">(1x1 Conv + 2x2 AvgPool)&#171;Trans&#187;</text><rect fill="#F1F1F1" height="47.9375" rx="12.5" ry="12.5" style="stroke:#181818;stroke-width:0.5;" width="135.2949" x="87.9258" y="585.5469"/><text fill="#000000" font-family="sans-serif" font-size="12" lengthAdjust="spacing" textLength="85.582" x="97.9258" y="606.6855">Dense Block 3</text><text fill="#000000" font-family="sans-serif" font-size="12" lengthAdjust="spacing" textLength="115.2949" x="97.9258" y="620.6543">(24 Layers)&#171;Block&#187;</text><rect fill="#F1F1F1" height="47.9375" rx="12.5" ry="12.5" style="stroke:#181818;stroke-width:0.5;" width="226.1855" x="42.4805" y="653.4844"/><text fill="#000000" font-family="sans-serif" font-size="12" lengthAdjust="spacing" textLength="108.5156" x="52.4805" y="674.623">Transition Layer 3</text><text fill="#000000" font-family="sans-serif" font-size="12" lengthAdjust="spacing" textLength="206.1855" x="52.4805" y="688.5918">(1x1 Conv + 2x2 AvgPool)&#171;Trans&#187;</text><rect fill="#F1F1F1" height="47.9375" rx="12.5" ry="12.5" style="stroke:#181818;stroke-width:0.5;" width="135.2949" x="87.9258" y="721.4219"/><text fill="#000000" font-family="sans-serif" font-size="12" lengthAdjust="spacing" textLength="85.582" x="97.9258" y="742.5605">Dense Block 4</text><text fill="#000000" font-family="sans-serif" font-size="12" lengthAdjust="spacing" textLength="115.2949" x="97.9258" y="756.5293">(16 Layers)&#171;Block&#187;</text><rect fill="none" height="136.2344" style="stroke:#000000;stroke-width:1.5;" width="254.7813" x="28.1826" y="791.3594"/><path d="M154.0723,791.3594 L154.0723,800.6563 L144.0723,810.6563 L28.1826,810.6563" fill="none" style="stroke:#000000;stroke-width:1.5;"/><text fill="#000000" font-family="sans-serif" font-size="14" lengthAdjust="spacing" textLength="115.8896" x="31.1826" y="805.3545">Head (Classifier)</text><rect fill="#F1F1F1" height="33.9688" rx="12.5" ry="12.5" style="stroke:#181818;stroke-width:0.5;" width="158.832" x="76.1572" y="827.6563"/><text fill="#000000" font-family="sans-serif" font-size="12" lengthAdjust="spacing" textLength="138.832" x="86.1572" y="848.7949">Global Avg Pooling 7x7</text><rect fill="#F1F1F1" height="33.9688" rx="12.5" ry="12.5" style="stroke:#181818;stroke-width:0.5;" width="234.7813" x="38.1826" y="881.625"/><text fill="#000000" font-family="sans-serif" font-size="12" lengthAdjust="spacing" textLength="214.7813" x="48.1826" y="902.7637">Fully Connected / Softmax&#171;Output&#187;</text><ellipse cx="155.5732" cy="958.5938" fill="none" rx="11" ry="11" style="stroke:#222222;stroke-width:1;"/><ellipse cx="155.5732" cy="958.5938" fill="#222222" rx="6" ry="6" style="stroke:#222222;stroke-width:1;"/><line style="stroke:#181818;stroke-width:1;" x1="155.5732" x2="155.5732" y1="67.2969" y2="87.2969"/><polygon fill="#181818" points="151.5732,77.2969,155.5732,87.2969,159.5732,77.2969,155.5732,81.2969" style="stroke:#181818;stroke-width:1;"/><line style="stroke:#181818;stroke-width:1;" x1="155.5732" x2="155.5732" y1="201.5313" y2="221.5313"/><polygon fill="#181818" points="151.5732,211.5313,155.5732,221.5313,159.5732,211.5313,155.5732,215.5313" style="stroke:#181818;stroke-width:1;"/><line style="stroke:#181818;stroke-width:1;" x1="155.5732" x2="155.5732" y1="121.2656" y2="167.5625"/><polygon fill="#181818" points="151.5732,157.5625,155.5732,167.5625,159.5732,157.5625,155.5732,161.5625" style="stroke:#181818;stroke-width:1;"/><line style="stroke:#181818;stroke-width:1;" x1="155.5732" x2="155.5732" y1="361.7344" y2="381.7344"/><polygon fill="#181818" points="151.5732,371.7344,155.5732,381.7344,159.5732,371.7344,155.5732,375.7344" style="stroke:#181818;stroke-width:1;"/><line style="stroke:#181818;stroke-width:1;" x1="155.5732" x2="155.5732" y1="429.6719" y2="449.6719"/><polygon fill="#181818" points="151.5732,439.6719,155.5732,449.6719,159.5732,439.6719,155.5732,443.6719" style="stroke:#181818;stroke-width:1;"/><line style="stroke:#181818;stroke-width:1;" x1="155.5732" x2="155.5732" y1="497.6094" y2="517.6094"/><polygon fill="#181818" points="151.5732,507.6094,155.5732,517.6094,159.5732,507.6094,155.5732,511.6094" style="stroke:#181818;stroke-width:1;"/><line style="stroke:#181818;stroke-width:1;" x1="155.5732" x2="155.5732" y1="565.5469" y2="585.5469"/><polygon fill="#181818" points="151.5732,575.5469,155.5732,585.5469,159.5732,575.5469,155.5732,579.5469" style="stroke:#181818;stroke-width:1;"/><line style="stroke:#181818;stroke-width:1;" x1="155.5732" x2="155.5732" y1="633.4844" y2="653.4844"/><polygon fill="#181818" points="151.5732,643.4844,155.5732,653.4844,159.5732,643.4844,155.5732,647.4844" style="stroke:#181818;stroke-width:1;"/><line style="stroke:#181818;stroke-width:1;" x1="155.5732" x2="155.5732" y1="701.4219" y2="721.4219"/><polygon fill="#181818" points="151.5732,711.4219,155.5732,721.4219,159.5732,711.4219,155.5732,715.4219" style="stroke:#181818;stroke-width:1;"/><line style="stroke:#181818;stroke-width:1;" x1="155.5732" x2="155.5732" y1="255.5" y2="313.7969"/><polygon fill="#181818" points="151.5732,303.7969,155.5732,313.7969,159.5732,303.7969,155.5732,307.7969" style="stroke:#181818;stroke-width:1;"/><line style="stroke:#181818;stroke-width:1;" x1="155.5732" x2="155.5732" y1="861.625" y2="881.625"/><polygon fill="#181818" points="151.5732,871.625,155.5732,881.625,159.5732,871.625,155.5732,875.625" style="stroke:#181818;stroke-width:1;"/><line style="stroke:#181818;stroke-width:1;" x1="155.5732" x2="155.5732" y1="769.3594" y2="827.6563"/><polygon fill="#181818" points="151.5732,817.6563,155.5732,827.6563,159.5732,817.6563,155.5732,821.6563" style="stroke:#181818;stroke-width:1;"/><line style="stroke:#181818;stroke-width:1;" x1="155.5732" x2="155.5732" y1="915.5938" y2="947.5938"/><polygon fill="#181818" points="151.5732,937.5938,155.5732,947.5938,159.5732,937.5938,155.5732,941.5938" style="stroke:#181818;stroke-width:1;"/><!--SRC=[fLDDJnD16BxlhtZbGebQqosH10W9HK4I499wCV4oTj-scqvdcjdPkWtXWjWWQVHW9S6eYP463rARQA85j7-ckrjE_WLdTzlAXnu8UzdClC_xFE_7CwEGY8E_VtIokzSzh7hRZPFwhlzc4wx9F1OH3CmIcqhDAfYiH0Gf0ib8ispA2gnfeBuKoHHoWjlCcEEKY-df5EMPmimCB9cvl4mNAYbgOuJama1n3dK7iNG6T9xkWI3C6j0zH4hvauji0z2A-kV-GxHYov8j5MYLK5mGY4nRrpHfIegg2cRXVPGt4te2bab6S9WLcRmfCIDjWPfcIIAaDhd850Ki5aaEfpHj5FGukAqggC4e7fCpM8Drw7QQNhtT_N48WNu9ul4u83Fwf-vHmtrsx3RRtaxBVxxblVsiHO6HjCGYn1QPOY8Kvf44qjROIDZEv1ndPPXm9cw09OLf8EXJKM2PEB3AEJLP3f9EydHygAeDD5BSg42ipmrt7Ic2TNBMLnc5P1nw-vkzsbEtjjFRtl0tshql1zxNrx-FQzsV7R_-oTsgkY-_-qUltDOlTUb_Q7Oxx_pcWRltpJlug8wzpdllHIEgBPmhXBk6n2CMkmrBf8B26XiQ86eYGeTRZEOOmiAKX9E0iFVhe3iwp9PpGRDZmvsV9ZWjfmUv-kNqz2le9LMkFduvlUGLzCQ3t7_Dy-BIxo4n83P7YMMPMHF5m58Bb3zMJbEIGmCfW_LjDMzJMWagO-eDe06t8CspiaYSlo_fZ9ObUUaF]--></g></svg>