<svg xmlns="http://www.w3.org/2000/svg" xmlns:xlink="http://www.w3.org/1999/xlink" contentStyleType="text/css" data-diagram-type="DESCRIPTION" height="343px" preserveAspectRatio="none" style="width:1721px;height:343px;background:#FFFFFF;" version="1.1" viewBox="0 0 1721 343" width="1721px" zoomAndPan="magnify"><title>Micro Architecture: Inside a Dense Block (3 Layers)</title><defs/><g><g class="title" data-source-line="5"><text fill="#000000" font-family="sans-serif" font-size="14" font-weight="bold" lengthAdjust="spacing" textLength="405.2617" x="651.3645" y="22.9951">Micro Architecture: Inside a Dense Block (3 Layers)</text></g><!--cluster Dense Block--><g class="cluster" data-entity="Dense Block" data-source-line="16" data-uid="ent0002" id="cluster_Dense Block"><rect fill="none" height="253" rx="2.5" ry="2.5" style="stroke:#181818;stroke-width:1;" width="1637.5" x="9" y="84.7969"/><text fill="#000000" font-family="sans-serif" font-size="14" font-weight="bold" lengthAdjust="spacing" textLength="96.4824" x="779.5088" y="99.792">Dense Block</text></g><!--entity x0--><g class="entity" data-entity="x0" data-source-line="17" data-uid="ent0003" id="entity_x0"><rect fill="#F1F1F1" height="36.2969" rx="2.5" ry="2.5" style="stroke:#181818;stroke-width:0.5;" width="77.8936" x="25" y="165.7969"/><text fill="#000000" font-family="sans-serif" font-size="14" lengthAdjust="spacing" textLength="57.8936" x="35" y="188.792">Input x0</text></g><!--entity h1--><g class="entity" data-entity="h1" data-source-line="20" data-uid="ent0004" id="entity_h1"><rect fill="#FFE4B5" height="52.5938" rx="2.5" ry="2.5" style="stroke:#FF8C00;stroke-width:0.5;" width="150.6689" x="182" y="268.2969"/><text fill="#000000" font-family="sans-serif" font-size="14" font-style="italic" lengthAdjust="spacing" textLength="56.3145" x="229.1772" y="291.292">&#171;Layer&#187;</text><text fill="#000000" font-family="sans-serif" font-size="14" lengthAdjust="spacing" textLength="130.6689" x="192" y="307.5889">H1: BN-ReLU-Conv</text></g><!--entity c1--><g class="entity" data-entity="c1" data-source-line="21" data-uid="ent0005" id="entity_c1"><ellipse cx="471.5" cy="183.7969" fill="#DDA0DD" rx="8" ry="8" style="stroke:#800080;stroke-width:0.5;"/><text fill="#000000" font-family="sans-serif" font-size="14" lengthAdjust="spacing" textLength="48.9795" x="447.0103" y="213.792">Concat</text><text fill="#000000" font-family="sans-serif" font-size="14" font-style="italic" lengthAdjust="spacing" textLength="66.2607" x="438.3696" y="163.4951">&#171;Concat&#187;</text></g><!--entity h2--><g class="entity" data-entity="h2" data-source-line="24" data-uid="ent0006" id="entity_h2"><rect fill="#FFE4B5" height="52.5938" rx="2.5" ry="2.5" style="stroke:#FF8C00;stroke-width:0.5;" width="150.6689" x="610" y="157.2969"/><text fill="#000000" font-family="sans-serif" font-size="14" font-style="italic" lengthAdjust="spacing" textLength="56.3145" x="657.1772" y="180.292">&#171;Layer&#187;</text><text fill="#000000" font-family="sans-serif" font-size="14" lengthAdjust="spacing" textLength="130.6689" x="620" y="196.5889">H2: BN-ReLU-Conv</text></g><!--entity c2--><g class="entity" data-entity="c2" data-source-line="25" data-uid="ent0007" id="entity_c2"><ellipse cx="911.5" cy="235.7969" fill="#DDA0DD" rx="8" ry="8" style="stroke:#800080;stroke-width:0.5;"/><text fill="#000000" font-family="sans-serif" font-size="14" lengthAdjust="spacing" textLength="48.9795" x="887.0103" y="265.792">Concat</text><text fill="#000000" font-family="sans-serif" font-size="14" font-style="italic" lengthAdjust="spacing" textLength="66.2607" x="878.3696" y="215.4951">&#171;Concat&#187;</text></g><!--entity h3--><g class="entity" data-entity="h3" data-source-line="28" data-uid="ent0008" id="entity_h3"><rect fill="#FFE4B5" height="52.5938" rx="2.5" ry="2.5" style="stroke:#FF8C00;stroke-width:0.5;" width="150.6689" x="1062" y="209.2969"/><text fill="#000000" font-family="sans-serif" font-size="14" font-style="italic" lengthAdjust="spacing" textLength="56.3145" x="1109.1772" y="232.292">&#171;Layer&#187;</text><text fill="#000000" font-family="sans-serif" font-size="14" lengthAdjust="spacing" textLength="130.6689" x="1072" y="248.5889">H3: BN-ReLU-Conv</text></g><!--entity c_final--><g class="entity" data-entity="c_final" data-source-line="29" data-uid="ent0009" id="entity_c_final"><ellipse cx="1324" cy="172.7969" fill="#DDA0DD" rx="8" ry="8" style="stroke:#800080;stroke-width:0.5;"/><text fill="#000000" font-family="sans-serif" font-size="14" lengthAdjust="spacing" textLength="86.7139" x="1280.6431" y="202.792">Final Concat</text><text fill="#000000" font-family="sans-serif" font-size="14" font-style="italic" lengthAdjust="spacing" textLength="66.2607" x="1290.8696" y="152.4951">&#171;Concat&#187;</text></g><!--entity out--><g class="entity" data-entity="out" data-source-line="31" data-uid="ent0010" id="entity_out"><rect fill="#F1F1F1" height="36.2969" rx="2.5" ry="2.5" style="stroke:#181818;stroke-width:0.5;" width="110.9453" x="1519.5" y="131.7969"/><text fill="#000000" font-family="sans-serif" font-size="14" lengthAdjust="spacing" textLength="90.9453" x="1529.5" y="154.792">Block Output</text></g><g class="entity" data-entity="GMN24" data-source-line="58" data-uid="ent0025" id="entity_GMN24"><path d="M6,43.2969 L6,68.4297 A0,0 0 0 0 6,68.4297 L47,68.4297 L51,165.7269 L55,68.4297 L121.688,68.4297 A0,0 0 0 0 121.688,68.4297 L121.688,53.2969 L111.688,43.2969 L6,43.2969 A0,0 0 0 0 6,43.2969" fill="#FEFFDD" style="stroke:#181818;stroke-width:0.5;"/><path d="M111.688,43.2969 L111.688,53.2969 L121.688,53.2969 L111.688,43.2969" fill="#FEFFDD" style="stroke:#181818;stroke-width:0.5;"/><text fill="#000000" font-family="sans-serif" font-size="13" lengthAdjust="spacing" textLength="94.688" x="12" y="60.3638">Input Features</text></g><g class="entity" data-entity="GMN27" data-source-line="59" data-uid="ent0028" id="entity_GMN27"><path d="M393,43.2969 L393,68.4297 A0,0 0 0 0 393,68.4297 L468,68.4297 L472,174.6569 L476,68.4297 L549.8525,68.4297 A0,0 0 0 0 549.8525,68.4297 L549.8525,53.2969 L539.8525,43.2969 L393,43.2969 A0,0 0 0 0 393,43.2969" fill="#FEFFDD" style="stroke:#181818;stroke-width:0.5;"/><path d="M539.8525,43.2969 L539.8525,53.2969 L549.8525,53.2969 L539.8525,43.2969" fill="#FEFFDD" style="stroke:#181818;stroke-width:0.5;"/><text fill="#000000" font-family="sans-serif" font-size="13" lengthAdjust="spacing" textLength="135.8525" x="399" y="60.3638">Accumulate: [x0, x1]</text></g><g class="entity" data-entity="GMN30" data-source-line="60" data-uid="ent0031" id="entity_GMN30"><path d="M821,43.2969 L821,68.4297 A0,0 0 0 0 821,68.4297 L911,68.4297 L915,226.5269 L919,68.4297 L1002.0815,68.4297 A0,0 0 0 0 1002.0815,68.4297 L1002.0815,53.2969 L992.0815,43.2969 L821,43.2969 A0,0 0 0 0 821,43.2969" fill="#FEFFDD" style="stroke:#181818;stroke-width:0.5;"/><path d="M992.0815,43.2969 L992.0815,53.2969 L1002.0815,53.2969 L992.0815,43.2969" fill="#FEFFDD" style="stroke:#181818;stroke-width:0.5;"/><text fill="#000000" font-family="sans-serif" font-size="13" lengthAdjust="spacing" textLength="160.0815" x="827" y="60.3638">Accumulate: [x0, x1, x2]</text></g><g class="entity" data-entity="GMN33" data-source-line="61" data-uid="ent0034" id="entity_GMN33"><path d="M1435,43.2969 L1435,68.4297 A0,0 0 0 0 1435,68.4297 L1571,68.4297 L1575,131.6769 L1579,68.4297 L1714.9907,68.4297 A0,0 0 0 0 1714.9907,68.4297 L1714.9907,53.2969 L1704.9907,43.2969 L1435,43.2969 A0,0 0 0 0 1435,43.2969" fill="#FEFFDD" style="stroke:#181818;stroke-width:0.5;"/><path d="M1704.9907,43.2969 L1704.9907,53.2969 L1714.9907,53.2969 L1704.9907,43.2969" fill="#FEFFDD" style="stroke:#181818;stroke-width:0.5;"/><text fill="#000000" font-family="sans-serif" font-size="13" lengthAdjust="spacing" textLength="258.9907" x="1441" y="60.3638">Output Features (Growth Rate * L + k0)</text></g><!--link x0 to h1--><g class="link" data-entity-1="x0" data-entity-2="h1" data-source-line="36" data-uid="lnk11" id="link_x0_h1"><path d="M51,202.1269 C51,233.6569 51,294.7969 51,294.7969 C51,294.7969 116.84,294.7969 175.78,294.7969" fill="none" id="x0-to-h1" style="stroke:#181818;stroke-width:1;"/><polygon fill="#181818" points="181.78,294.7969,172.78,290.7969,176.78,294.7969,172.78,298.7969,181.78,294.7969" style="stroke:#181818;stroke-width:1;"/></g><!--link x0 to c1--><g class="link" data-entity-1="x0" data-entity-2="c1" data-source-line="39" data-uid="lnk12" id="link_x0_c1"><path d="M103.07,183.7969 C193.71,183.7969 408.22,183.7969 456.19,183.7969" fill="none" id="x0-to-c1" style="stroke:#181818;stroke-width:1;"/><polygon fill="#181818" points="462.19,183.7969,453.19,179.7969,457.19,183.7969,453.19,187.7969,462.19,183.7969" style="stroke:#181818;stroke-width:1;"/></g><!--link h1 to c1--><g class="link" data-entity-1="h1" data-entity-2="c1" data-source-line="40" data-uid="lnk13" id="link_h1_c1"><path d="M333.12,281.5469 C394.88,281.5469 472,281.5469 472,281.5469 C472,281.5469 472,223.0169 472,198.8169" fill="none" id="h1-to-c1" style="stroke:#181818;stroke-width:1;"/><polygon fill="#181818" points="472,192.8169,468,201.8169,472,197.8169,476,201.8169,472,192.8169" style="stroke:#181818;stroke-width:1;"/><text fill="#000000" font-family="sans-serif" font-size="13" lengthAdjust="spacing" textLength="15.9644" x="430.93" y="294.6138">x1</text></g><!--link c1 to h2--><g class="link" data-entity-1="c1" data-entity-2="h2" data-source-line="41" data-uid="lnk14" id="link_c1_h2"><path d="M480.7,183.7969 C502.9,183.7969 555.19,183.7969 603.94,183.7969" fill="none" id="c1-to-h2" style="stroke:#181818;stroke-width:1;"/><polygon fill="#181818" points="609.94,183.7969,600.94,179.7969,604.94,183.7969,600.94,187.7969,609.94,183.7969" style="stroke:#181818;stroke-width:1;"/></g><!--link x0 to c2--><g class="link" data-entity-1="x0" data-entity-2="c2" data-source-line="44" data-uid="lnk15" id="link_x0_c2"><path d="M77,201.9869 C77,216.9769 77,235.7969 77,235.7969 C77,235.7969 805.98,235.7969 896.41,235.7969" fill="none" id="x0-to-c2" style="stroke:#181818;stroke-width:1;"/><polygon fill="#181818" points="902.41,235.7969,893.41,231.7969,897.41,235.7969,893.41,239.7969,902.41,235.7969" style="stroke:#181818;stroke-width:1;"/></g><!--link h1 to c2--><g class="link" data-entity-1="h1" data-entity-2="c2" data-source-line="45" data-uid="lnk16" id="link_h1_c2"><path d="M333.22,294.7969 C505.5,294.7969 912,294.7969 912,294.7969 C912,294.7969 912,267.6069 912,251.0169" fill="none" id="h1-to-c2" style="stroke:#181818;stroke-width:1;"/><polygon fill="#181818" points="912,245.0169,908,254.0169,912,250.0169,916,254.0169,912,245.0169" style="stroke:#181818;stroke-width:1;"/></g><!--link h2 to c2--><g class="link" data-entity-1="h2" data-entity-2="c2" data-source-line="46" data-uid="lnk17" id="link_h2_c2"><path d="M761.17,205.5469 C826.01,205.5469 909,205.5469 909,205.5469 C909,205.5469 909,211.6569 909,220.5569" fill="none" id="h2-to-c2" style="stroke:#181818;stroke-width:1;"/><polygon fill="#181818" points="909,226.5569,913,217.5569,909,221.5569,905,217.5569,909,226.5569" style="stroke:#181818;stroke-width:1;"/><text fill="#000000" font-family="sans-serif" font-size="13" lengthAdjust="spacing" textLength="15.9644" x="829.59" y="218.6138">x2</text></g><!--link c2 to h3--><g class="link" data-entity-1="c2" data-entity-2="h3" data-source-line="47" data-uid="lnk18" id="link_c2_h3"><path d="M920.64,235.7969 C944.26,235.7969 1003.16,235.7969 1055.85,235.7969" fill="none" id="c2-to-h3" style="stroke:#181818;stroke-width:1;"/><polygon fill="#181818" points="1061.85,235.7969,1052.85,231.7969,1056.85,235.7969,1052.85,239.7969,1061.85,235.7969" style="stroke:#181818;stroke-width:1;"/></g><!--link x0 to c_final--><g class="link" data-entity-1="x0" data-entity-2="c_final" data-source-line="50" data-uid="lnk19" id="link_x0_c_final"><path d="M77,165.6169 C77,157.8569 77,150.5469 77,150.5469 C77,150.5469 1308.28,150.5469 1317.94,150.5469" fill="none" id="x0-to-c_final" style="stroke:#181818;stroke-width:1;"/><polygon fill="#181818" points="1323.94,150.5469,1314.94,146.5469,1318.94,150.5469,1314.94,154.5469,1323.94,150.5469" style="stroke:#181818;stroke-width:1;"/></g><!--link h1 to c_final--><g class="link" data-entity-1="h1" data-entity-2="c_final" data-source-line="51" data-uid="lnk20" id="link_h1_c_final"><path d="M333.26,308.0469 C579.43,308.0469 1341,308.0469 1341,308.0469 C1341,308.0469 1341,182.9869 1341,178.8969" fill="none" id="h1-to-c_final" style="stroke:#181818;stroke-width:1;"/><polygon fill="#181818" points="1341,172.8969,1337,181.8969,1341,177.8969,1345,181.8969,1341,172.8969" style="stroke:#181818;stroke-width:1;"/></g><!--link h2 to c_final--><g class="link" data-entity-1="h2" data-entity-2="c_final" data-source-line="52" data-uid="lnk21" id="link_h2_c_final"><path d="M761.25,179.5469 C915.19,179.5469 1249.08,179.5469 1308.92,179.5469" fill="none" id="h2-to-c_final" style="stroke:#181818;stroke-width:1;"/><polygon fill="#181818" points="1314.92,179.5469,1305.92,175.5469,1309.92,179.5469,1305.92,183.5469,1314.92,179.5469" style="stroke:#181818;stroke-width:1;"/></g><!--link h3 to c_final--><g class="link" data-entity-1="h3" data-entity-2="c_final" data-source-line="53" data-uid="lnk22" id="link_h3_c_final"><path d="M1213.33,235.7969 C1258.46,235.7969 1307,235.7969 1307,235.7969 C1307,235.7969 1307,180.7469 1307,178.8469" fill="none" id="h3-to-c_final" style="stroke:#181818;stroke-width:1;"/><polygon fill="#181818" points="1307,172.8469,1303,181.8469,1307,177.8469,1311,181.8469,1307,172.8469" style="stroke:#181818;stroke-width:1;"/><text fill="#000000" font-family="sans-serif" font-size="13" lengthAdjust="spacing" textLength="15.9644" x="1275.64" y="248.8638">x3</text></g><!--link c_final to out--><g class="link" data-entity-1="c_final" data-entity-2="out" data-source-line="55" data-uid="lnk23" id="link_c_final_out"><path d="M1324.05,155.7969 C1326.72,155.7969 1440.33,155.7969 1513.44,155.7969" fill="none" id="c_final-to-out" style="stroke:#181818;stroke-width:1;"/><polygon fill="#181818" points="1519.44,155.7969,1510.44,151.7969,1514.44,155.7969,1510.44,159.7969,1519.44,155.7969" style="stroke:#181818;stroke-width:1;"/></g><!--SRC=[ZPHlRzem4CRVvrESU3FO5WcSTwX2AgtOAj5rwhHN24sUCSIAyKNEPGLD- -xpdq0JcdQBb80VFtU_ypbnLIXJSilt871Vef66lj5HIx1I43SxBPFgRD7AI3gM4j1IZecMMm92i6gN4soK3r5eaeGKkGptIbY4QojoHMwcjd8ATwPI6maSRgMf9CmrYWA66IpvKTfgbBHWvthWTmBkcdDHx2pMPdE36ktLLOYPpU0UXU2LCj65TYFjXUEMs-B1kjN8v4-Be0n9k-L2laQuGICukGHVTRr_cVvvkhQbzhcJSzTWq5hXe06ixanP4np6Q-2L-mbYUBo3D4rZ5s3Y_qV_vyaKvb_IHxdydZhQhn2NJ-2yj61xNiSWbZJmDk5jfnBxIQn5OdqazdyazazIrY9bVQJiTT926QwXpVkn3L8VT1LVgOUQNAT3QgpfiYONPkAxMfthQgON6fzWY_Qq5q4-Z9rjvXh_XfF1CEnkDNNsZt2OZDgX8eRcasO4pXKb4QMSlP4xkypjRjRDpphvcn5hHfuM9H6bFElGGZTZo_f8xiwwjBW17MHROY-bh2tvUbeLd5JlyBlblYE39E4d4k4USEkv_kpmzIqazqT95Is4fPyF3RqMejxNcfCxPrQn-dNNnVfTVethIwGhnBcRffoWCFnayOboU7Jny1wMy06AyUWl]--></g></svg>