<svg xmlns="http://www.w3.org/2000/svg" xmlns:xlink="http://www.w3.org/1999/xlink" contentStyleType="text/css" data-diagram-type="DESCRIPTION" height="237px" preserveAspectRatio="none" style="width:4082px;height:237px;background:#FFFFFF;" version="1.1" viewBox="0 0 4082 237" width="4082px" zoomAndPan="magnify"><defs/><g><!--cluster Input--><g class="cluster" data-entity="Input" data-source-line="4" data-uid="ent0002" id="cluster_Input"><path d="M8.5,100 L51.3564,100 A3.75,3.75 0 0 1 53.8564,102.5 L60.8564,122.2969 L193.5,122.2969 A2.5,2.5 0 0 1 196,124.7969 L196,203.5 A2.5,2.5 0 0 1 193.5,206 L8.5,206 A2.5,2.5 0 0 1 6,203.5 L6,102.5 A2.5,2.5 0 0 1 8.5,100" fill="none" style="stroke:#000000;stroke-width:1.5;"/><line style="stroke:#000000;stroke-width:1.5;" x1="6" x2="60.8564" y1="122.2969" y2="122.2969"/><text fill="#000000" font-family="sans-serif" font-size="14" font-weight="bold" lengthAdjust="spacing" textLength="41.8564" x="10" y="114.9951">Input</text></g><!--cluster Backbone: Darknet-53--><g class="cluster" data-entity="Backbone. Darknet-53" data-source-line="8" data-uid="ent0004" id="cluster_Backbone. Darknet-53"><path d="M222.5,100 L399.5322,100 A3.75,3.75 0 0 1 402.0322,102.5 L409.0322,122.2969 L1725.5,122.2969 A2.5,2.5 0 0 1 1728,124.7969 L1728,203.5 A2.5,2.5 0 0 1 1725.5,206 L222.5,206 A2.5,2.5 0 0 1 220,203.5 L220,102.5 A2.5,2.5 0 0 1 222.5,100" fill="none" style="stroke:#000000;stroke-width:1.5;"/><line style="stroke:#000000;stroke-width:1.5;" x1="220" x2="409.0322" y1="122.2969" y2="122.2969"/><text fill="#000000" font-family="sans-serif" font-size="14" font-weight="bold" lengthAdjust="spacing" textLength="176.0322" x="224" y="114.9951">Backbone: Darknet-53</text></g><!--cluster Neck & Head (Multi-Scale Predictions)--><g class="cluster" data-entity="Neck . Head .Multi-Scale Predictions." data-source-line="24" data-uid="ent0017" id="cluster_Neck . Head .Multi-Scale Predictions."><path d="M1754.5,47 L2056.8145,47 A3.75,3.75 0 0 1 2059.3145,49.5 L2066.3145,69.2969 L4072.5,69.2969 A2.5,2.5 0 0 1 4075,71.7969 L4075,227.5 A2.5,2.5 0 0 1 4072.5,230 L1754.5,230 A2.5,2.5 0 0 1 1752,227.5 L1752,49.5 A2.5,2.5 0 0 1 1754.5,47" fill="none" style="stroke:#000000;stroke-width:1.5;"/><line style="stroke:#000000;stroke-width:1.5;" x1="1752" x2="2066.3145" y1="69.2969" y2="69.2969"/><text fill="#000000" font-family="sans-serif" font-size="14" font-weight="bold" lengthAdjust="spacing" textLength="301.3145" x="1756" y="61.9951">Neck &amp; Head (Multi-Scale Predictions)</text></g><!--cluster Large Object Detection--><g class="cluster" data-entity="Large Object Detection" data-source-line="26" data-uid="ent0018" id="cluster_Large Object Detection"><polygon fill="none" points="3544,100,3554,90,4051,90,4051,196,4041,206,3544,206,3544,100" style="stroke:#181818;stroke-width:1;"/><line style="stroke:#181818;stroke-width:1;" x1="4041" x2="4051" y1="100" y2="90"/><line style="stroke:#181818;stroke-width:1;" x1="3544" x2="4041" y1="100" y2="100"/><line style="stroke:#181818;stroke-width:1;" x1="4041" x2="4041" y1="100" y2="206"/><text fill="#000000" font-family="sans-serif" font-size="14" font-weight="bold" lengthAdjust="spacing" textLength="182.4238" x="3702.2881" y="115.9951">Large Object Detection</text></g><!--cluster Medium Object Detection--><g class="cluster" data-entity="Medium Object Detection" data-source-line="33" data-uid="ent0023" id="cluster_Medium Object Detection"><polygon fill="none" points="2660,100,2670,90,3520,90,3520,196,3510,206,2660,206,2660,100" style="stroke:#181818;stroke-width:1;"/><line style="stroke:#181818;stroke-width:1;" x1="3510" x2="3520" y1="100" y2="90"/><line style="stroke:#181818;stroke-width:1;" x1="2660" x2="3510" y1="100" y2="100"/><line style="stroke:#181818;stroke-width:1;" x1="3510" x2="3510" y1="100" y2="206"/><text fill="#000000" font-family="sans-serif" font-size="14" font-weight="bold" lengthAdjust="spacing" textLength="200.4365" x="2985.7817" y="115.9951">Medium Object Detection</text></g><!--cluster Small Object Detection--><g class="cluster" data-entity="Small Object Detection" data-source-line="46" data-uid="ent0033" id="cluster_Small Object Detection"><polygon fill="none" points="1776,100,1786,90,2636,90,2636,196,2626,206,1776,206,1776,100" style="stroke:#181818;stroke-width:1;"/><line style="stroke:#181818;stroke-width:1;" x1="2626" x2="2636" y1="100" y2="90"/><line style="stroke:#181818;stroke-width:1;" x1="1776" x2="2626" y1="100" y2="100"/><line style="stroke:#181818;stroke-width:1;" x1="2626" x2="2626" y1="100" y2="206"/><text fill="#000000" font-family="sans-serif" font-size="14" font-weight="bold" lengthAdjust="spacing" textLength="181.3506" x="2111.3247" y="115.9951">Small Object Detection</text></g><!--entity IMG--><g class="entity" data-entity="IMG" data-source-line="5" data-uid="ent0003" id="entity_IMG"><rect fill="#F1F1F1" height="36.2969" rx="2.5" ry="2.5" style="stroke:#181818;stroke-width:0.5;" width="158.1406" x="22" y="154"/><text fill="#000000" font-family="sans-serif" font-size="14" lengthAdjust="spacing" textLength="138.1406" x="32" y="176.9951">Image (416x416x3)</text></g><!--entity Conv1--><g class="entity" data-entity="Conv1" data-source-line="9" data-uid="ent0005" id="entity_Conv1"><rect fill="#F1F1F1" height="36.2969" rx="2.5" ry="2.5" style="stroke:#181818;stroke-width:0.5;" width="166.8906" x="235.5" y="154"/><text fill="#000000" font-family="sans-serif" font-size="14" lengthAdjust="spacing" textLength="146.8906" x="245.5" y="176.9951">Convolutional Layers</text></g><!--entity Res1--><g class="entity" data-entity="Res1" data-source-line="10" data-uid="ent0006" id="entity_Res1"><rect fill="#F1F1F1" height="36.2969" rx="2.5" ry="2.5" style="stroke:#181818;stroke-width:0.5;" width="151.0039" x="523.5" y="154"/><text fill="#000000" font-family="sans-serif" font-size="14" lengthAdjust="spacing" textLength="131.0039" x="533.5" y="176.9951">Residual Blocks x1</text></g><!--entity Res2--><g class="entity" data-entity="Res2" data-source-line="11" data-uid="ent0007" id="entity_Res2"><rect fill="#F1F1F1" height="36.2969" rx="2.5" ry="2.5" style="stroke:#181818;stroke-width:0.5;" width="151.0039" x="795.5" y="154"/><text fill="#000000" font-family="sans-serif" font-size="14" lengthAdjust="spacing" textLength="131.0039" x="805.5" y="176.9951">Residual Blocks x2</text></g><!--entity Res8_1--><g class="entity" data-entity="Res8_1" data-source-line="12" data-uid="ent0008" id="entity_Res8_1"><rect fill="#F1F1F1" height="36.2969" rx="2.5" ry="2.5" style="stroke:#181818;stroke-width:0.5;" width="151.0039" x="1050.5" y="154"/><text fill="#000000" font-family="sans-serif" font-size="14" lengthAdjust="spacing" textLength="131.0039" x="1060.5" y="176.9951">Residual Blocks x8</text></g><!--entity Res8_2--><g class="entity" data-entity="Res8_2" data-source-line="13" data-uid="ent0009" id="entity_Res8_2"><rect fill="#F1F1F1" height="36.2969" rx="2.5" ry="2.5" style="stroke:#181818;stroke-width:0.5;" width="151.0039" x="1305.5" y="154"/><text fill="#000000" font-family="sans-serif" font-size="14" lengthAdjust="spacing" textLength="131.0039" x="1315.5" y="176.9951">Residual Blocks x8</text></g><!--entity Res4--><g class="entity" data-entity="Res4" data-source-line="14" data-uid="ent0010" id="entity_Res4"><rect fill="#F1F1F1" height="36.2969" rx="2.5" ry="2.5" style="stroke:#181818;stroke-width:0.5;" width="151.0039" x="1560.5" y="154"/><text fill="#000000" font-family="sans-serif" font-size="14" lengthAdjust="spacing" textLength="131.0039" x="1570.5" y="176.9951">Residual Blocks x4</text></g><!--entity FM1--><g class="entity" data-entity="FM1" data-source-line="27" data-uid="ent0019" id="entity_FM1"><rect fill="#F1F1F1" height="36.2969" rx="2.5" ry="2.5" style="stroke:#181818;stroke-width:0.5;" width="156.3359" x="3560" y="154"/><text fill="#000000" font-family="sans-serif" font-size="14" lengthAdjust="spacing" textLength="136.3359" x="3570" y="176.9951">Feature Map 13x13</text></g><!--entity Det1--><g class="entity" data-entity="Det1" data-source-line="28" data-uid="ent0020" id="entity_Det1"><rect fill="#F1F1F1" height="36.2969" rx="2.5" ry="2.5" style="stroke:#181818;stroke-width:0.5;" width="176.9121" x="3858.5" y="154"/><text fill="#000000" font-family="sans-serif" font-size="14" lengthAdjust="spacing" textLength="156.9121" x="3868.5" y="176.9951">Detection Generator 1</text></g><!--entity UP1--><g class="entity" data-entity="UP1" data-source-line="34" data-uid="ent0024" id="entity_UP1"><rect fill="#F1F1F1" height="36.2969" rx="2.5" ry="2.5" style="stroke:#181818;stroke-width:0.5;" width="104.9844" x="2676.5" y="154"/><text fill="#000000" font-family="sans-serif" font-size="14" lengthAdjust="spacing" textLength="84.9844" x="2686.5" y="176.9951">UpSample 1</text></g><!--entity Cat1--><g class="entity" data-entity="Cat1" data-source-line="35" data-uid="ent0025" id="entity_Cat1"><rect fill="#F1F1F1" height="36.2969" rx="2.5" ry="2.5" style="stroke:#181818;stroke-width:0.5;" width="177.3906" x="2816.5" y="154"/><text fill="#000000" font-family="sans-serif" font-size="14" lengthAdjust="spacing" textLength="157.3906" x="2826.5" y="176.9951">Route / Concatenate 1</text></g><!--entity FM2--><g class="entity" data-entity="FM2" data-source-line="36" data-uid="ent0026" id="entity_FM2"><rect fill="#F1F1F1" height="36.2969" rx="2.5" ry="2.5" style="stroke:#181818;stroke-width:0.5;" width="156.3359" x="3029" y="154"/><text fill="#000000" font-family="sans-serif" font-size="14" lengthAdjust="spacing" textLength="136.3359" x="3039" y="176.9951">Feature Map 26x26</text></g><!--entity Det2--><g class="entity" data-entity="Det2" data-source-line="37" data-uid="ent0027" id="entity_Det2"><rect fill="#F1F1F1" height="36.2969" rx="2.5" ry="2.5" style="stroke:#181818;stroke-width:0.5;" width="176.9121" x="3327.5" y="154"/><text fill="#000000" font-family="sans-serif" font-size="14" lengthAdjust="spacing" textLength="156.9121" x="3337.5" y="176.9951">Detection Generator 2</text></g><!--entity UP2--><g class="entity" data-entity="UP2" data-source-line="47" data-uid="ent0034" id="entity_UP2"><rect fill="#F1F1F1" height="36.2969" rx="2.5" ry="2.5" style="stroke:#181818;stroke-width:0.5;" width="104.9844" x="1792.5" y="154"/><text fill="#000000" font-family="sans-serif" font-size="14" lengthAdjust="spacing" textLength="84.9844" x="1802.5" y="176.9951">UpSample 2</text></g><!--entity Cat2--><g class="entity" data-entity="Cat2" data-source-line="48" data-uid="ent0035" id="entity_Cat2"><rect fill="#F1F1F1" height="36.2969" rx="2.5" ry="2.5" style="stroke:#181818;stroke-width:0.5;" width="177.3906" x="1932.5" y="154"/><text fill="#000000" font-family="sans-serif" font-size="14" lengthAdjust="spacing" textLength="157.3906" x="1942.5" y="176.9951">Route / Concatenate 2</text></g><!--entity FM3--><g class="entity" data-entity="FM3" data-source-line="49" data-uid="ent0036" id="entity_FM3"><rect fill="#F1F1F1" height="36.2969" rx="2.5" ry="2.5" style="stroke:#181818;stroke-width:0.5;" width="156.3359" x="2145" y="154"/><text fill="#000000" font-family="sans-serif" font-size="14" lengthAdjust="spacing" textLength="136.3359" x="2155" y="176.9951">Feature Map 52x52</text></g><!--entity Det3--><g class="entity" data-entity="Det3" data-source-line="50" data-uid="ent0037" id="entity_Det3"><rect fill="#F1F1F1" height="36.2969" rx="2.5" ry="2.5" style="stroke:#181818;stroke-width:0.5;" width="176.9121" x="2443.5" y="154"/><text fill="#000000" font-family="sans-serif" font-size="14" lengthAdjust="spacing" textLength="156.9121" x="2453.5" y="176.9951">Detection Generator 3</text></g><!--link IMG to Conv1--><g class="link" data-entity-1="IMG" data-entity-2="Conv1" data-source-line="16" data-uid="lnk11" id="link_IMG_Conv1"><path d="M180.2,172 C198.54,172 210.88,172 229.23,172" fill="none" id="IMG-to-Conv1" style="stroke:#181818;stroke-width:1;"/><polygon fill="#181818" points="235.23,172,226.23,168,230.23,172,226.23,176,235.23,172" style="stroke:#181818;stroke-width:1;"/></g><!--link Conv1 to Res1--><g class="link" data-entity-1="Conv1" data-entity-2="Res1" data-source-line="17" data-uid="lnk12" id="link_Conv1_Res1"><path d="M402.63,172 C440.98,172 480.11,172 517.43,172" fill="none" id="Conv1-to-Res1" style="stroke:#181818;stroke-width:1;"/><polygon fill="#181818" points="523.43,172,514.43,168,518.43,172,514.43,176,523.43,172" style="stroke:#181818;stroke-width:1;"/><text fill="#000000" font-family="sans-serif" font-size="13" lengthAdjust="spacing" textLength="84.2461" x="421" y="165.0669">/2 (208x208)</text></g><!--link Res1 to Res2--><g class="link" data-entity-1="Res1" data-entity-2="Res2" data-source-line="18" data-uid="lnk13" id="link_Res1_Res2"><path d="M674.77,172 C712.34,172 751.59,172 789.17,172" fill="none" id="Res1-to-Res2" style="stroke:#181818;stroke-width:1;"/><polygon fill="#181818" points="795.17,172,786.17,168,790.17,172,786.17,176,795.17,172" style="stroke:#181818;stroke-width:1;"/><text fill="#000000" font-family="sans-serif" font-size="13" lengthAdjust="spacing" textLength="84.2461" x="693" y="165.0669">/2 (104x104)</text></g><!--link Res2 to Res8_1--><g class="link" data-entity-1="Res2" data-entity-2="Res8_1" data-source-line="19" data-uid="lnk14" id="link_Res2_Res8_1"><path d="M946.82,172 C979.56,172 1011.77,172 1044.47,172" fill="none" id="Res2-to-Res8_1" style="stroke:#181818;stroke-width:1;"/><polygon fill="#181818" points="1050.47,172,1041.47,168,1045.47,172,1041.47,176,1050.47,172" style="stroke:#181818;stroke-width:1;"/><text fill="#000000" font-family="sans-serif" font-size="13" lengthAdjust="spacing" textLength="67.7041" x="965" y="165.0669">/2 (52x52)</text></g><!--link Res8_1 to Res8_2--><g class="link" data-entity-1="Res8_1" data-entity-2="Res8_2" data-source-line="20" data-uid="lnk15" id="link_Res8_1_Res8_2"><path d="M1201.82,172 C1234.56,172 1266.77,172 1299.47,172" fill="none" id="Res8_1-to-Res8_2" style="stroke:#181818;stroke-width:1;"/><polygon fill="#181818" points="1305.47,172,1296.47,168,1300.47,172,1296.47,176,1305.47,172" style="stroke:#181818;stroke-width:1;"/><text fill="#000000" font-family="sans-serif" font-size="13" lengthAdjust="spacing" textLength="67.7041" x="1220" y="165.0669">/2 (26x26)</text></g><!--link Res8_2 to Res4--><g class="link" data-entity-1="Res8_2" data-entity-2="Res4" data-source-line="21" data-uid="lnk16" id="link_Res8_2_Res4"><path d="M1456.82,172 C1489.56,172 1521.77,172 1554.47,172" fill="none" id="Res8_2-to-Res4" style="stroke:#181818;stroke-width:1;"/><polygon fill="#181818" points="1560.47,172,1551.47,168,1555.47,172,1551.47,176,1560.47,172" style="stroke:#181818;stroke-width:1;"/><text fill="#000000" font-family="sans-serif" font-size="13" lengthAdjust="spacing" textLength="67.7041" x="1475" y="165.0669">/2 (13x13)</text></g><!--link Res4 to FM1--><g class="link" data-entity-1="Res4" data-entity-2="FM1" data-source-line="29" data-uid="lnk21" id="link_Res4_FM1"><path d="M1647.65,153.92 C1670.05,121.14 1722.67,53.04 1787.67,29 C1810.08,20.71 3485.92,20.71 3508.33,29 C3568.68,51.32 3608.6311,115.2981 3626.2411,148.5381" fill="none" id="Res4-to-FM1" style="stroke:#181818;stroke-width:1;"/><polygon fill="#181818" points="3629.05,153.84,3628.3713,144.0146,3626.7093,149.4217,3621.3021,147.7597,3629.05,153.84" style="stroke:#181818;stroke-width:1;"/></g><!--link FM1 to Det1--><g class="link" data-entity-1="FM1" data-entity-2="Det1" data-source-line="30" data-uid="lnk22" id="link_FM1_Det1"><path d="M3716.37,172 C3759.64,172 3807.53,172 3852.33,172" fill="none" id="FM1-to-Det1" style="stroke:#181818;stroke-width:1;"/><polygon fill="#181818" points="3858.33,172,3849.33,168,3853.33,172,3849.33,176,3858.33,172" style="stroke:#181818;stroke-width:1;"/><text fill="#000000" font-family="sans-serif" font-size="13" lengthAdjust="spacing" textLength="106.9453" x="3734.25" y="165.0669">Predict (Scale 1)</text></g><!--link FM1 to UP1--><g class="link" data-entity-1="FM1" data-entity-2="UP1" data-source-line="39" data-uid="lnk28" id="link_FM1_UP1"><path d="M3628.87,153.98 C3609.94,119.04 3562.63,43.4 3496.67,19 C3461.53,6 2857.47,6 2822.33,19 C2765.28,40.1 2742.3004,112.3563 2733.9804,148.0963" fill="none" id="FM1-to-UP1" style="stroke:#181818;stroke-width:1;"/><polygon fill="#181818" points="2732.62,153.94,2738.5564,146.0813,2733.7536,149.0702,2730.7647,144.2675,2732.62,153.94" style="stroke:#181818;stroke-width:1;"/></g><!--link UP1 to Cat1--><g class="link" data-entity-1="UP1" data-entity-2="Cat1" data-source-line="40" data-uid="lnk29" id="link_UP1_Cat1"><path d="M2781.59,172 C2793.16,172 2798.73,172 2810.3,172" fill="none" id="UP1-to-Cat1" style="stroke:#181818;stroke-width:1;"/><polygon fill="#181818" points="2816.3,172,2807.3,168,2811.3,172,2807.3,176,2816.3,172" style="stroke:#181818;stroke-width:1;"/></g><!--link Res8_2 to Cat1--><g class="link" data-entity-1="Res8_2" data-entity-2="Cat1" data-source-line="41" data-uid="lnk30" id="link_Res8_2_Cat1"><path d="M1397.22,153.82 C1424.13,125.17 1481.23,70.66 1543,50 C1609.18,27.87 2735.51,21.06 2799,50 C2845.98,71.42 2877.3083,119.8018 2892.8383,148.2918" fill="none" id="Res8_2-to-Cat1" style="stroke:#181818;stroke-width:1;"/><polygon fill="#181818" points="2895.71,153.56,2894.9146,143.7433,2893.3169,149.1699,2887.8904,147.5722,2895.71,153.56" style="stroke:#181818;stroke-width:1;"/><text fill="#000000" font-family="sans-serif" font-size="13" lengthAdjust="spacing" textLength="105.333" x="1593.5" y="27.0669">Skip Connection</text></g><!--link Cat1 to FM2--><g class="link" data-entity-1="Cat1" data-entity-2="FM2" data-source-line="42" data-uid="lnk31" id="link_Cat1_FM2"><path d="M2993.77,172 C3005.42,172 3011.06,172 3022.71,172" fill="none" id="Cat1-to-FM2" style="stroke:#181818;stroke-width:1;"/><polygon fill="#181818" points="3028.71,172,3019.71,168,3023.71,172,3019.71,176,3028.71,172" style="stroke:#181818;stroke-width:1;"/></g><!--link FM2 to Det2--><g class="link" data-entity-1="FM2" data-entity-2="Det2" data-source-line="43" data-uid="lnk32" id="link_FM2_Det2"><path d="M3185.37,172 C3228.64,172 3276.53,172 3321.33,172" fill="none" id="FM2-to-Det2" style="stroke:#181818;stroke-width:1;"/><polygon fill="#181818" points="3327.33,172,3318.33,168,3322.33,172,3318.33,176,3327.33,172" style="stroke:#181818;stroke-width:1;"/><text fill="#000000" font-family="sans-serif" font-size="13" lengthAdjust="spacing" textLength="106.9453" x="3203.25" y="165.0669">Predict (Scale 2)</text></g><!--link FM2 to UP2--><g class="link" data-entity-1="FM2" data-entity-2="UP2" data-source-line="52" data-uid="lnk38" id="link_FM2_UP2"><path d="M3100.4,153.96 C3086.27,118.63 3049.28,41.79 2987.67,19 C2960.33,8.89 1965.67,8.89 1938.33,19 C1881.28,40.1 1858.3004,112.3563 1849.9804,148.0963" fill="none" id="FM2-to-UP2" style="stroke:#181818;stroke-width:1;"/><polygon fill="#181818" points="1848.62,153.94,1854.5564,146.0813,1849.7536,149.0702,1846.7647,144.2675,1848.62,153.94" style="stroke:#181818;stroke-width:1;"/></g><!--link UP2 to Cat2--><g class="link" data-entity-1="UP2" data-entity-2="Cat2" data-source-line="53" data-uid="lnk39" id="link_UP2_Cat2"><path d="M1897.59,172 C1909.16,172 1914.73,172 1926.3,172" fill="none" id="UP2-to-Cat2" style="stroke:#181818;stroke-width:1;"/><polygon fill="#181818" points="1932.3,172,1923.3,168,1927.3,172,1923.3,176,1932.3,172" style="stroke:#181818;stroke-width:1;"/></g><!--link Res8_1 to Cat2--><g class="link" data-entity-1="Res8_1" data-entity-2="Cat2" data-source-line="54" data-uid="lnk40" id="link_Res8_1_Cat2"><path d="M1142.22,153.82 C1169.13,125.17 1226.23,70.66 1288,50 C1354.07,27.9 1851.61,21.1 1915,50 C1961.98,71.42 1993.3083,119.8018 2008.8383,148.2918" fill="none" id="Res8_1-to-Cat2" style="stroke:#181818;stroke-width:1;"/><polygon fill="#181818" points="2011.71,153.56,2010.9146,143.7433,2009.3169,149.1699,2003.8904,147.5722,2011.71,153.56" style="stroke:#181818;stroke-width:1;"/><text fill="#000000" font-family="sans-serif" font-size="13" lengthAdjust="spacing" textLength="105.333" x="1709.5" y="27.0669">Skip Connection</text></g><!--link Cat2 to FM3--><g class="link" data-entity-1="Cat2" data-entity-2="FM3" data-source-line="55" data-uid="lnk41" id="link_Cat2_FM3"><path d="M2109.77,172 C2121.42,172 2127.06,172 2138.71,172" fill="none" id="Cat2-to-FM3" style="stroke:#181818;stroke-width:1;"/><polygon fill="#181818" points="2144.71,172,2135.71,168,2139.71,172,2135.71,176,2144.71,172" style="stroke:#181818;stroke-width:1;"/></g><!--link FM3 to Det3--><g class="link" data-entity-1="FM3" data-entity-2="Det3" data-source-line="56" data-uid="lnk42" id="link_FM3_Det3"><path d="M2301.37,172 C2344.64,172 2392.53,172 2437.33,172" fill="none" id="FM3-to-Det3" style="stroke:#181818;stroke-width:1;"/><polygon fill="#181818" points="2443.33,172,2434.33,168,2438.33,172,2434.33,176,2443.33,172" style="stroke:#181818;stroke-width:1;"/><text fill="#000000" font-family="sans-serif" font-size="13" lengthAdjust="spacing" textLength="106.9453" x="2319.25" y="165.0669">Predict (Scale 3)</text></g><!--SRC=[ZP9DQzj048Rl-XL30iK-c4IpiZ4vv107fuQe3H4vbLBMqc9KIRj2MXM5al_UsI_7gMrQesNbVMT6xpopVLNAbdUyWItFgrsd1bciLAqwk5pRNzJl8tBLj4eAgJFzMWleHAwvtDKYYbhAvJi15nlP3le2VaS0tpQDEPeayM8qYqs_0-zXapv4RmSPT_IofQetSC-xIWezcpDVOANaBrKFkbIIr_38NqNNsnf6Y4t4i-ZBOY3nhbPvrSCOMvsEJyiOP3mfBuEy_17_A-1qXIG492JJGzt2x7PlsExcm3Y46xX2cE3rSgGr9TcUEXMz6byd8oslebV9dzVdECxHg-Oqw24V5oCkzdh8Jq9rDiPi-c4UNqHUmIVuB7W1atIeTJdBSaxZVkf4KUPc6FtK3OWUgGhAUUGTfNxT_gGR0VT22nlcWeZIMd0zT09IteBzeeMqJcCdxnFWGKZHSKsNpysH51TZBPFra4Ex-MjqwiGxWuap6fjsgQNWBYLrQCxRUsapthGcqNxqvSdxUbQ35d1bXfPpBIGj7xBYtjU7rYngtngURmr3Qoxci9_mQThjhU7lxVlPcIFgEAlArlYIhheDif9bXBucUaPup0Z_OfGrlAx_0n5wH7WU4GP4U8p8tbQFY9r7n08YTeW87IBqY08FV4SKgE5vHEWGCL-JUKJi615pYDx-0000]--></g></svg>